<?xml version="1.0" encoding="UTF-8"?>
<svg xmlns="http://www.w3.org/2000/svg" xmlns:xlink="http://www.w3.org/1999/xlink" viewBox="0 0 30 30" width="30px" height="30px">
<g id="surface3726012">
<path style=" stroke:none;fill-rule:nonzero;fill:rgb(100%,100%,100%);fill-opacity:1;" d="M 15 5 C 15 5 7.183594 5 5.230469 5.523438 C 4.15625 5.808594 3.308594 6.65625 3.023438 7.730469 C 2.5 9.683594 2.5 15 2.5 15 C 2.5 15 2.5 20.316406 3.023438 22.269531 C 3.308594 23.34375 4.15625 24.191406 5.230469 24.476562 C 7.183594 25 15 25 15 25 C 15 25 22.816406 25 24.769531 24.476562 C 25.84375 24.191406 26.691406 23.34375 26.976562 22.269531 C 27.5 20.316406 27.5 15 27.5 15 C 27.5 15 27.5 9.683594 26.976562 7.730469 C 26.691406 6.65625 25.84375 5.808594 24.769531 5.523438 C 22.816406 5 15 5 15 5 Z M 15 7.5 C 18.601562 7.5 23.113281 7.667969 24.121094 7.9375 C 24.332031 7.992188 24.503906 8.167969 24.5625 8.378906 C 24.863281 9.5 25 12.925781 25 15 C 25 17.074219 24.863281 20.496094 24.5625 21.621094 C 24.507812 21.832031 24.332031 22.003906 24.121094 22.0625 C 23.113281 22.332031 18.601562 22.5 15 22.5 C 11.398438 22.5 6.886719 22.332031 5.878906 22.0625 C 5.667969 22.007812 5.496094 21.832031 5.4375 21.621094 C 5.136719 20.5 5 17.074219 5 15 C 5 12.925781 5.136719 9.5 5.4375 8.375 C 5.492188 8.167969 5.667969 7.992188 5.878906 7.9375 C 6.886719 7.667969 11.398438 7.5 15 7.5 Z M 12.5 10.667969 L 12.5 19.332031 L 20 15 Z M 12.5 10.667969 "/>
</g>
</svg>
