<?xml version="1.0" encoding="UTF-8"?>
<svg xmlns="http://www.w3.org/2000/svg" xmlns:xlink="http://www.w3.org/1999/xlink" viewBox="0 0 30 30" width="30px" height="30px">
<g id="surface3635003">
<path style=" stroke:none;fill-rule:evenodd;fill:rgb(100%,100%,100%);fill-opacity:1;" d="M 7.800781 3 L 9.601562 8.398438 L 9.601562 12 L 10.800781 12 L 10.800781 8.398438 L 12.601562 3 L 11.398438 3 L 10.199219 6.601562 L 9 3 Z M 14.398438 5.398438 C 13.761719 5.398438 13.445312 5.5 13.054688 5.820312 C 12.679688 6.136719 12.578125 6.382812 12.601562 7.199219 L 12.601562 10.199219 C 12.601562 10.796875 12.699219 11.191406 13.058594 11.539062 C 13.433594 11.890625 13.789062 12 14.398438 12 C 15.039062 12 15.390625 11.890625 15.75 11.539062 C 16.125 11.207031 16.199219 10.796875 16.199219 10.199219 L 16.199219 7.199219 C 16.199219 6.671875 16.105469 6.167969 15.742188 5.832031 C 15.367188 5.488281 14.980469 5.398438 14.398438 5.398438 Z M 17.398438 5.398438 L 17.398438 10.800781 C 17.398438 11.382812 17.988281 12 18.601562 12 C 19.210938 12 19.535156 11.691406 19.800781 11.398438 L 19.800781 12 L 21 12 L 21 5.398438 L 19.800781 5.398438 L 19.800781 10.199219 C 19.792969 10.609375 19.308594 10.800781 19.199219 10.800781 C 19.074219 10.800781 18.601562 10.773438 18.601562 10.199219 L 18.601562 5.398438 Z M 14.398438 6.601562 C 14.582031 6.601562 15 6.597656 15 7.199219 L 15 10.199219 C 15 10.78125 14.59375 10.800781 14.398438 10.800781 C 14.21875 10.800781 13.800781 10.792969 13.800781 10.199219 L 13.800781 7.199219 C 13.800781 6.710938 14.058594 6.601562 14.398438 6.601562 Z M 15.273438 13.152344 C 12.25 13.144531 9.226562 13.152344 6.199219 13.199219 C 5.792969 13.210938 5.382812 13.269531 4.996094 13.398438 C 4.679688 13.503906 4.378906 13.648438 4.109375 13.835938 C 3.789062 14.0625 3.511719 14.347656 3.296875 14.671875 C 3.144531 14.898438 3.019531 15.148438 2.929688 15.40625 C 2.78125 15.820312 2.710938 16.257812 2.699219 16.695312 C 2.667969 18.664062 2.667969 20.632812 2.699219 22.601562 C 2.710938 22.976562 2.761719 23.347656 2.859375 23.710938 C 3.050781 24.394531 3.414062 25.035156 3.941406 25.515625 C 4.09375 25.65625 4.257812 25.777344 4.433594 25.886719 C 4.648438 26.019531 4.882812 26.128906 5.125 26.210938 C 5.46875 26.328125 5.832031 26.386719 6.199219 26.398438 C 12.265625 26.511719 18.335938 26.492188 24.402344 26.398438 C 24.808594 26.386719 25.214844 26.328125 25.605469 26.203125 C 25.917969 26.097656 26.21875 25.953125 26.492188 25.761719 C 26.8125 25.539062 27.089844 25.253906 27.308594 24.929688 C 27.457031 24.699219 27.578125 24.453125 27.671875 24.195312 C 27.820312 23.78125 27.886719 23.339844 27.898438 22.902344 C 27.929688 20.851562 27.910156 18.800781 27.898438 16.75 C 27.894531 16.308594 27.828125 15.863281 27.683594 15.449219 C 27.597656 15.1875 27.476562 14.9375 27.328125 14.707031 C 27.117188 14.378906 26.84375 14.089844 26.527344 13.863281 C 26.246094 13.660156 25.933594 13.503906 25.605469 13.398438 C 25.199219 13.265625 24.777344 13.207031 24.347656 13.199219 C 21.324219 13.1875 18.300781 13.160156 15.273438 13.152344 Z M 19.855469 14.363281 C 21.363281 14.363281 22.871094 14.375 24.375 14.398438 C 24.613281 14.40625 24.851562 14.433594 25.085938 14.492188 C 25.457031 14.59375 25.808594 14.777344 26.078125 15.054688 C 26.171875 15.148438 26.25 15.25 26.324219 15.359375 C 26.421875 15.515625 26.503906 15.6875 26.558594 15.863281 C 26.652344 16.140625 26.691406 16.433594 26.699219 16.726562 C 26.730469 18.777344 26.730469 20.828125 26.699219 22.875 C 26.691406 23.167969 26.652344 23.457031 26.558594 23.734375 C 26.503906 23.914062 26.421875 24.085938 26.324219 24.242188 C 26.25 24.351562 26.171875 24.453125 26.078125 24.546875 C 25.808594 24.824219 25.457031 25.007812 25.085938 25.105469 C 24.851562 25.164062 24.613281 25.191406 24.375 25.199219 C 18.339844 25.292969 12.300781 25.238281 6.265625 25.199219 C 6.007812 25.195312 5.753906 25.15625 5.507812 25.074219 C 5.351562 25.023438 5.203125 24.953125 5.066406 24.863281 C 4.953125 24.796875 4.84375 24.71875 4.75 24.628906 C 4.378906 24.289062 4.132812 23.839844 4.007812 23.359375 C 3.941406 23.105469 3.910156 22.839844 3.898438 22.574219 C 3.871094 20.640625 3.890625 18.699219 3.898438 16.761719 C 3.90625 16.46875 3.941406 16.175781 4.03125 15.894531 C 4.085938 15.710938 4.164062 15.542969 4.265625 15.382812 C 4.339844 15.265625 4.425781 15.152344 4.519531 15.054688 C 4.800781 14.769531 5.160156 14.582031 5.546875 14.488281 C 5.792969 14.425781 6.050781 14.402344 6.300781 14.398438 C 10.820312 14.398438 15.339844 14.347656 19.855469 14.363281 Z M 6.601562 15.601562 L 6.601562 16.800781 L 7.800781 16.800781 L 7.800781 24 L 9 24 L 9 16.800781 L 10.199219 16.800781 L 10.199219 15.601562 Z M 15.601562 15.601562 L 15.601562 24 L 16.800781 24 L 16.800781 23.398438 C 17.03125 23.667969 17.371094 24.007812 18 24 C 18.371094 23.996094 18.660156 23.695312 18.851562 23.457031 C 19.050781 23.222656 19.199219 22.945312 19.199219 22.5 L 19.199219 18.898438 C 19.199219 18.382812 19.035156 18.03125 18.828125 17.765625 C 18.617188 17.503906 18.3125 17.363281 17.925781 17.363281 C 17.726562 17.363281 17.535156 17.417969 17.339844 17.515625 C 17.144531 17.613281 16.9375 17.785156 16.800781 18 L 16.800781 15.601562 Z M 10.800781 17.398438 L 10.800781 22.800781 C 10.800781 23.175781 10.960938 23.359375 11.101562 23.539062 C 11.253906 23.738281 11.585938 24 11.875 24 C 12.109375 24 12.363281 24.007812 12.613281 23.867188 C 12.863281 23.746094 12.976562 23.664062 13.199219 23.398438 L 13.199219 24 L 14.398438 24 L 14.398438 17.398438 L 13.199219 17.398438 L 13.199219 22.199219 C 13.09375 22.339844 13.085938 22.796875 12.601562 22.800781 C 12.160156 22.804688 12 22.339844 12 22.199219 L 12 17.398438 Z M 21.71875 17.398438 C 21.148438 17.398438 20.621094 17.539062 20.339844 17.828125 C 19.992188 18.183594 19.800781 18.589844 19.800781 19.132812 L 19.800781 21.957031 C 19.800781 22.566406 19.96875 23.042969 20.289062 23.390625 C 20.605469 23.738281 21.050781 23.90625 21.621094 23.90625 C 22.246094 23.90625 22.71875 23.75 23.023438 23.417969 C 23.347656 23.097656 23.398438 22.609375 23.398438 21.957031 L 23.398438 21.601562 L 22.199219 21.601562 L 22.199219 21.898438 C 22.199219 22.261719 22.164062 22.539062 22.082031 22.636719 C 22 22.75 21.84375 22.796875 21.601562 22.800781 C 21.378906 22.800781 21.214844 22.742188 21.132812 22.601562 C 21.042969 22.476562 21 22.261719 21 21.929688 L 21 21 L 23.398438 21 L 23.398438 19.132812 C 23.398438 18.53125 23.300781 18.160156 22.992188 17.839844 C 22.691406 17.523438 22.289062 17.398438 21.71875 17.398438 Z M 17.398438 18.300781 C 17.730469 18.300781 18 18.601562 18 19.199219 L 18 22.214844 C 18 22.542969 17.730469 22.800781 17.398438 22.800781 C 17.070312 22.800781 16.804688 22.671875 16.800781 22.5 L 16.800781 18.898438 C 16.804688 18.597656 17.070312 18.300781 17.398438 18.300781 Z M 21.601562 18.601562 C 21.929688 18.601562 22.199219 18.832031 22.199219 19.199219 L 22.199219 19.800781 L 21 19.800781 L 21 19.199219 C 21.003906 18.878906 21.269531 18.601562 21.601562 18.601562 Z M 21.601562 18.601562 "/>
</g>
</svg>
